Coordinates
version=1
nRows=8
nColumns=40
inDegrees=yes

Units are S.I. units (second, meters, Newtons, ...)
If the header above contains a line with 'inDegrees', this indicates whether rotational values are in degrees (yes) or radians (no).

endheader
time	pelvis_tilt	pelvis_list	pelvis_rotation	pelvis_tx	pelvis_ty	pelvis_tz	hip_flexion_r	hip_adduction_r	hip_rotation_r	knee_angle_r	knee_angle_r_beta	ankle_angle_r	subtalar_angle_r	mtp_angle_r	hip_flexion_l	hip_adduction_l	hip_rotation_l	knee_angle_l	knee_angle_l_beta	ankle_angle_l	subtalar_angle_l	mtp_angle_l	lumbar_extension	lumbar_bending	lumbar_rotation	arm_flex_r	arm_add_r	arm_rot_r	elbow_flex_r	pro_sup_r	wrist_flex_r	wrist_dev_r	arm_flex_l	arm_add_l	arm_rot_l	elbow_flex_l	pro_sup_l	wrist_flex_l	wrist_dev_l
      4.92500000	      9.29638592	     -4.67244500	      7.21511498	     -0.29441402	      0.89868330	     -1.01317792	     64.86870371	      0.38432090	     -9.75233997	     35.49388753	      0.61948520	     -1.88808905	      0.00000000	      0.00000000	     31.62345153	     -7.53366072	     -5.24916411	     78.16367394	      1.36421347	     28.39297601	      0.00000000	      0.00000000	    -22.44271467	     -7.19341939	     -9.26077102	     89.90609116	     -4.89989741	     28.27300452	     28.22542147	     84.57076145	      0.00000000	      0.00000000	     89.94254038	    -19.36245624	     37.56922742	     36.61151404	     84.99597906	      0.00000000	      0.00000000
      4.93000000	      9.27906057	     -4.68111375	      7.22392373	     -0.29436643	      0.89933938	     -1.01317161	     64.87795266	      0.38158875	     -9.75281112	     35.50525322	      0.61968357	     -1.88087230	      0.00000000	      0.00000000	     31.60815555	     -7.53281864	     -5.25180112	     78.11931566	      1.36343927	     28.37888472	      0.00000000	      0.00000000	    -22.40943862	     -7.17885548	     -9.25800313	     89.90692246	     -4.90026415	     28.24595513	     28.27811674	     84.56783594	      0.00000000	      0.00000000	     89.94241555	    -19.35217741	     37.57032336	     36.61403985	     84.99692832	      0.00000000	      0.00000000
      4.93500000	      9.26532735	     -4.74682171	      7.24431909	     -0.29427520	      0.90006558	     -1.01317625	     64.92333111	      0.40861141	     -9.74953055	     35.60757950	      0.62146950	     -1.87608679	      0.00000000	      0.00000000	     31.53307860	     -7.56530891	     -5.18849634	     77.91059692	      1.35979644	     28.30350626	      0.00000000	      0.00000000	    -22.36588784	     -7.08486226	     -9.20286758	     89.90660729	     -4.93395700	     28.21453787	     28.27167670	     84.57723769	      0.00000000	      0.00000000	     89.94238376	    -19.32104438	     37.65415197	     36.54173919	     85.01399612	      0.00000000	      0.00000000
      4.94000000	      9.24412046	     -4.76099402	      7.23821404	     -0.29420920	      0.90081430	     -1.01322575	     64.93609542	      0.42394928	     -9.76725353	     35.61784012	      0.62164858	     -1.86786614	      0.00000000	      0.00000000	     31.52131768	     -7.55497678	     -5.18734537	     77.85711488	      1.35886300	     28.28662825	      0.00000000	      0.00000000	    -22.33938253	     -7.06340566	     -9.19215249	     89.90659456	     -4.93202723	     28.19200069	     28.31616278	     84.57620849	      0.00000000	      0.00000000	     89.94236187	    -19.31834247	     37.64921140	     36.54443522	     85.01392957	      0.00000000	      0.00000000
      4.94500000	      9.22253497	     -4.83802810	      7.23717147	     -0.29407733	      0.90160504	     -1.01323500	     64.97554519	      0.46348671	     -9.84032437	     35.68956572	      0.62290043	     -1.83272411	      0.00000000	      0.00000000	     31.42491224	     -7.58294602	     -5.10302639	     77.61573423	      1.35465011	     28.19520980	      0.00000000	      0.00000000	    -22.28449873	     -6.96372074	     -9.13732945	     89.90672231	     -4.94651652	     28.15325566	     28.34234159	     84.58441455	      0.00000000	      0.00000000	     89.94209044	    -19.29175145	     37.75396481	     36.44489333	     85.03404219	      0.00000000	      0.00000000
      4.95000000	      9.20530279	     -4.85492247	      7.23260518	     -0.29405012	      0.90233927	     -1.01331804	     64.98412013	      0.47023792	     -9.84642321	     35.70186575	      0.62311511	     -1.82684660	      0.00000000	      0.00000000	     31.42037156	     -7.57408423	     -5.10514256	     77.56468331	      1.35375911	     28.17988855	      0.00000000	      0.00000000	    -22.25704033	     -6.93346560	     -9.11729209	     89.90697438	     -4.95499926	     28.12760117	     28.38258289	     84.58250058	      0.00000000	      0.00000000	     89.94212126	    -19.29775994	     37.74908496	     36.44647178	     85.03347820	      0.00000000	      0.00000000
      4.95500000	      9.21195133	     -4.84694354	      7.18630331	     -0.29386856	      0.90329835	     -1.01332225	     64.98155519	      0.49673157	     -9.85013727	     35.75594645	      0.62405899	     -1.80781736	      0.00000000	      0.00000000	     31.24290147	     -7.52385733	     -5.08546560	     77.27435452	      1.34869191	     28.06679211	      0.00000000	      0.00000000	    -22.23118661	     -6.92888348	     -9.01355687	     89.90703337	     -4.99936037	     28.08647684	     28.38392706	     84.58874892	      0.00000000	      0.00000000	     89.94184483	    -19.27514094	     37.83023363	     36.37051411	     85.04583205	      0.00000000	      0.00000000
      4.96000000	      9.20358163	     -4.84690463	      7.17307436	     -0.29378997	      0.90410304	     -1.01343712	     64.98425956	      0.49672352	     -9.85241235	     35.76584129	      0.62423169	     -1.80739990	      0.00000000	      0.00000000	     31.20655355	     -7.50829303	     -5.09993604	     77.22847131	      1.34789110	     28.05344314	      0.00000000	      0.00000000	    -22.21850760	     -6.91271284	     -9.00834442	     89.90690269	     -4.99633158	     28.06326438	     28.42825960	     84.58785277	      0.00000000	      0.00000000	     89.94166073	    -19.26757946	     37.82438348	     36.37704887	     85.04512296	      0.00000000	      0.00000000
